# xmcd
#
# Track frame offsets: 
#        150
#        18272
#        35310
#        54450
#        71562
#        89880
#        108490
#        125830
#        142780
#        162377
#
# Disc length: 2406 seconds
#
# Revision: 0
# Processed by: cddbd v1.5.1PL2 Copyright (c) Steve Scherf et al.
# Submitted via: ExactAudioCopy v0.95b4
#
DISCID=8909640a
DTITLE=จ๊อบ and จอย - หมอลำพันลาย ๕+๑  ปลาแดกแลกสะตอ
DYEAR=1900
DGENRE=Country
TTITLE0=ปลาแดกแลกสะตอ
TTITLE1=จ๊อบ-จอยลำซิ่ง
TTITLE2=สงกรานต์ผลาญใจ
TTITLE3=สิเลือกไผ
TTITLE4=สัญญาฮักเดือน 12
TTITLE5=คึดฮอดอ้าย
TTITLE6=สามปีที่น้อยคอย
TTITLE7=สาวนาอาวรณ์
TTITLE8=วาสนาคนคอย
TTITLE9=ปัญหาใจ
EXTD=
EXTT0=
EXTT1=
EXTT2=
EXTT3=
EXTT4=
EXTT5=
EXTT6=
EXTT7=
EXTT8=
EXTT9=
PLAYORDER=
